<svg xmlns="http://www.w3.org/2000/svg" height="64" width="64" viewBox="0 0 64 64"><title>airplane</title><g stroke-linecap="square" stroke-width="4" fill="none" stroke="#212121" stroke-linejoin="miter" class="nc-icon-wrapper" stroke-miterlimit="10"><path data-cap="butt" d="M47.286,27.321l7.876,24.565a5,5,0,0,1-1.226,5.062L50.884,60,37.224,37.382" stroke-linecap="butt" stroke="#212121"></path><path data-cap="butt" d="M36.679,16.714,12.114,8.838a5,5,0,0,0-5.062,1.226L4,13.116l22.618,13.66" stroke-linecap="butt" stroke="#212121"></path><path data-cap="butt" d="M14.861,41.205,4.151,40.011A1.073,1.073,0,0,0,4,40a1,1,0,0,0-.68,1.733h0l6.826,6.717" stroke-linecap="butt"></path><path data-cap="butt" d="M22.8,49.151l1.193,10.7A1.073,1.073,0,0,1,24,60a1,1,0,0,1-1.733.68h0L15.55,53.854" stroke-linecap="butt"></path><path data-cap="butt" d="M59.034,4.976C56.847,2.789,48.752,4.66,45.823,7.589L21.834,31.579A32,32,0,0,0,17.3,37.294L7.243,53.441A2.487,2.487,0,0,0,9.5,57a4.456,4.456,0,0,0,1.063-.239L26.71,46.716a31.975,31.975,0,0,0,5.724-4.544L56.42,18.186C59.349,15.257,61.22,7.162,59.034,4.976Z" stroke-linecap="butt"></path></g></svg>